# xmcd
#
# Track frame offsets: 
#        150
#        15970
#        44558
#        65331
#        84376
#        103087
#        126883
#        145674
#        172225
#        194934
#
# Disc length: 2856 seconds
#
# Revision: 0
# Processed by: cddbd v1.5.2PL0 Copyright (c) Steve Scherf et al.
# Submitted via: ExactAudioCopy v0.95a5
#
DISCID=8e0b260a
DTITLE=Wolf Mail - Electric Love Soul
DYEAR=2010
DGENRE=Blues
TTITLE0=Sweet Soul
TTITLE1=Upper Hand
TTITLE2=It Doesn't Matter
TTITLE3=Falling
TTITLE4=Shake'em Up
TTITLE5=Highway 69
TTITLE6=How Long
TTITLE7=Hard Love
TTITLE8=The Dry Well
TTITLE9=On Your Mind
EXTD=
EXTT0=
EXTT1=
EXTT2=
EXTT3=
EXTT4=
EXTT5=
EXTT6=
EXTT7=
EXTT8=
EXTT9=
PLAYORDER=
